<svg xmlns="http://www.w3.org/2000/svg" width="544.2" height="544.2" viewBox="0 0 544.2 544.2"><defs><linearGradient id="a" x1="0%" x2="100%" y1="100%" y2="0%"><stop offset="0%" stop-color="#3661EB"/><stop offset="52.392%" stop-color="#C850C0"/><stop offset="100%" stop-color="#E9BF4A"/></linearGradient></defs><g fill="none"><rect width="356" height="356" x="94" y="94" fill="url(#a)" rx="131"/><path fill="url(#a)" d="M272.1,0 C2.1,0 0,121.8 0,272.1 C0,422.4 2.1,544.2 272.1,544.2 C542.1,544.2 544.2,422.4 544.2,272.1 C544.2,121.8 542.1,0 272.1,0 Z"/><path fill="#FFF" d="M355.049988,197.109689 C344.02822,192.692326 331.319348,188.28464 312.007084,188.28464 C278.898273,188.28464 260.688186,206.510496 260.688186,251.796936 L260.688186,423 L240.26891,423 C207.1601,423 186.19457,406.433678 186.19457,375.502459 L186.19457,238.53517 C186.19457,178.888671 217.645281,122 296.006184,122 C341.80453,122 357.80543,147.957452 357.80543,170.600672 L357.80543,197.109689 L355.049988,197.109689 Z"/><circle cx="308.774" cy="399.846" r="23.154" fill="#FFF"/></g></svg>