<?xml version="1.0" encoding="UTF-8"?>
<svg width="545px" height="545px" viewBox="0 0 545 545" version="1.1" xmlns="http://www.w3.org/2000/svg" xmlns:xlink="http://www.w3.org/1999/xlink">
    <title>Combined Shape</title>
    <g id="Page-1" stroke="none" stroke-width="1" fill="none" fill-rule="evenodd">
        <g id="Group" fill="#000000">
            <path d="M272.1,0 C542.1,0 544.2,121.8 544.2,272.1 C544.2,422.4 542.1,544.2 272.1,544.2 C2.1,544.2 0,422.4 0,272.1 L0.0008958,267.599643 C0.06879,119.37618 4.8,0 272.1,0 Z M296.006184,122 C217.645281,122 186.19457,178.888671 186.19457,238.53517 L186.19457,375.502459 C186.19457,406.433678 207.1601,423 240.26891,423 L260.688186,423 L260.688186,251.796936 C260.688186,206.510496 278.898273,188.28464 312.007084,188.28464 C331.319348,188.28464 344.02822,192.692326 355.049988,197.109689 L357.80543,197.109689 L357.80543,170.600672 C357.80543,147.957452 341.80453,122 296.006184,122 Z M308.774,376.692 C295.986399,376.692 285.62,387.058399 285.62,399.846 C285.62,412.633601 295.986399,423 308.774,423 C321.561601,423 331.928,412.633601 331.928,399.846 C331.928,387.058399 321.561601,376.692 308.774,376.692 Z" id="Combined-Shape" fill-rule="nonzero"></path>
        </g>
    </g>
</svg>